<svg width="1200" height="260" viewBox="0 0 1200 260" fill="none" xmlns="http://www.w3.org/2000/svg" role="img" aria-labelledby="title desc">
  <title id="title">Jubílio Maússe</title>
  <desc id="desc">Humanitarian data, GIS, remote sensing and applied technology</desc>

  <defs>
    <linearGradient id="background" x1="0" y1="0" x2="1200" y2="260" gradientUnits="userSpaceOnUse">
      <stop stop-color="#07111F" />
      <stop offset="0.52" stop-color="#0B2B35" />
      <stop offset="1" stop-color="#0F766E" />
    </linearGradient>
    <linearGradient id="accent" x1="70" y1="50" x2="410" y2="215" gradientUnits="userSpaceOnUse">
      <stop stop-color="#5EEAD4" stop-opacity="0.75" />
      <stop offset="1" stop-color="#38BDF8" stop-opacity="0.08" />
    </linearGradient>
    <pattern id="grid" width="40" height="40" patternUnits="userSpaceOnUse">
      <path d="M 40 0 L 0 0 0 40" fill="none" stroke="#FFFFFF" stroke-opacity="0.045" stroke-width="1" />
    </pattern>
  </defs>

  <rect width="1200" height="260" rx="18" fill="url(#background)" />
  <rect width="1200" height="260" rx="18" fill="url(#grid)" />

  <circle cx="1090" cy="-10" r="190" fill="#38BDF8" fill-opacity="0.08" />
  <circle cx="1040" cy="245" r="130" fill="#5EEAD4" fill-opacity="0.08" />
  <circle cx="170" cy="130" r="92" stroke="url(#accent)" stroke-width="2" />
  <circle cx="170" cy="130" r="58" stroke="#5EEAD4" stroke-opacity="0.3" />
  <path d="M88 145C115 106 145 84 181 78C216 72 248 82 276 108" stroke="#5EEAD4" stroke-opacity="0.48" stroke-width="2" stroke-linecap="round" />
  <path d="M82 163C120 131 155 117 192 116C224 115 252 124 279 143" stroke="#38BDF8" stroke-opacity="0.4" stroke-width="2" stroke-linecap="round" />
  <path d="M104 187C137 164 170 153 206 154C229 154 249 160 268 171" stroke="#FFFFFF" stroke-opacity="0.22" stroke-width="2" stroke-linecap="round" />
  <circle cx="170" cy="130" r="7" fill="#5EEAD4" />
  <circle cx="230" cy="102" r="4" fill="#38BDF8" />
  <circle cx="116" cy="164" r="4" fill="#FFFFFF" fill-opacity="0.65" />

  <text x="330" y="105" fill="#FFFFFF" font-size="46" font-weight="700" font-family="Arial, Helvetica, sans-serif" letter-spacing="0.2">
    Jubílio Maússe
  </text>
  <text x="332" y="145" fill="#C7F9F2" font-size="21" font-weight="500" font-family="Arial, Helvetica, sans-serif">
    Humanitarian Data · GIS · Remote Sensing · Applied Technology
  </text>
  <text x="332" y="184" fill="#A8B8C7" font-size="15" font-family="Arial, Helvetica, sans-serif" letter-spacing="1.2">
    MOZAMBIQUE  /  EVIDENCE FOR BETTER DECISIONS
  </text>

  <rect x="332" y="204" width="96" height="3" rx="1.5" fill="#5EEAD4" />
  <rect x="436" y="204" width="42" height="3" rx="1.5" fill="#38BDF8" fill-opacity="0.8" />
</svg>
